<svg xmlns="http://www.w3.org/2000/svg" version="1.1" xmlns:xlink="http://www.w3.org/1999/xlink" xmlns:svgjs="http://svgjs.dev/svgjs" width="192" height="192"><svg width="192" height="192" viewBox="0 0 192 192" fill="none" xmlns="http://www.w3.org/2000/svg">
<g clip-path="url(#clip0_51_111)">
<path d="M0 96C0 24 24 0 96 0C168 0 192 24 192 96C192 168 168 192 96 192C24 192 0 168 0 96Z" fill="#BFA78C"></path>
<path d="M0 96C0 24 24 0 96 0C168 0 192 24 192 96C192 168 168 192 96 192C24 192 0 168 0 96Z" fill="url(#paint0_linear_51_111)"></path>
<path d="M0 96C0 24 24 0 96 0C168 0 192 24 192 96C192 168 168 192 96 192C24 192 0 168 0 96Z" fill="#2BEE4A"></path>
<path d="M92.8058 49.7495C92.8058 49.7992 92.4994 49.8323 92.0605 49.8323C91.6217 49.8323 91.3153 49.8654 91.3153 49.9151C91.3153 49.9565 91.2159 49.9979 91.0917 49.9979C90.9013 49.9979 90.4955 50.0973 89.6923 50.3374C89.5516 50.3788 89.3445 50.4119 89.2203 50.4119C89.0961 50.4119 88.9968 50.445 88.9968 50.4947C88.9968 50.5361 88.8891 50.5775 88.7566 50.5775C88.6241 50.5775 88.4999 50.6024 88.4834 50.6355C88.4503 50.7183 87.6553 50.9916 87.4732 50.9916C87.3986 50.9916 87.3407 51.0247 87.3407 51.0744C87.3407 51.1158 87.233 51.1572 87.0923 51.1572C86.9598 51.1572 86.8438 51.1903 86.8438 51.24C86.8438 51.2814 86.7528 51.3228 86.6368 51.3228C86.5209 51.3228 86.4298 51.3559 86.4298 51.4056C86.4298 51.447 86.3387 51.5049 86.2228 51.5381C86.1069 51.5629 86.0158 51.6209 86.0158 51.6623C86.0158 51.7037 85.9413 51.7368 85.8502 51.7368C85.7591 51.7368 85.6846 51.7699 85.6846 51.8196C85.6846 51.861 85.5935 51.9024 85.4776 51.9024C85.3616 51.9024 85.2706 51.9355 85.2706 51.9852C85.2706 52.0266 85.196 52.068 85.105 52.068C85.0139 52.068 84.9393 52.1011 84.9393 52.1508C84.9393 52.1922 84.8483 52.2502 84.7323 52.2833C84.6164 52.3081 84.5253 52.3661 84.5253 52.4075C84.5253 52.4489 84.4674 52.482 84.4011 52.482C84.3349 52.482 84.2769 52.5152 84.2769 52.5648C84.2769 52.6062 84.2189 52.6476 84.1527 52.6476C84.0782 52.6476 83.9788 52.689 83.9208 52.7304C83.4571 53.1196 83.3081 53.2273 83.2253 53.2273C83.1673 53.2273 82.9769 53.3598 82.8113 53.5171C82.6457 53.6744 82.4635 53.8069 82.4138 53.8069C82.3641 53.8069 82.273 53.8814 82.2068 53.9725C82.1406 54.0636 82.0577 54.1381 82.0163 54.1381C81.9418 54.1381 81.8093 54.2458 81.4202 54.6101C81.2628 54.7592 81.0972 54.8834 81.0475 54.8834C81.0061 54.8834 80.9647 54.9248 80.9647 54.9662C80.9647 55.0573 80.5921 55.463 80.5093 55.463C80.4596 55.463 79.4742 56.4401 79.4742 56.498C79.4742 56.5229 79.259 56.7547 79.0023 57.0197C78.7373 57.293 78.4475 57.6159 78.3564 57.7401C78.2653 57.8726 78.1411 58.0216 78.0914 58.0796C78.0335 58.1376 77.9838 58.2287 77.9838 58.2783C77.9838 58.328 77.8761 58.4854 77.7354 58.6344C77.6029 58.7835 77.4869 58.9242 77.4869 58.9573C77.4869 58.9905 77.4373 59.065 77.3876 59.123C77.3296 59.1809 77.222 59.3382 77.1557 59.479C77.0895 59.6115 76.9818 59.7771 76.9322 59.8351C76.8742 59.893 76.8245 59.9924 76.8245 60.0504C76.8245 60.1 76.75 60.1994 76.6589 60.2656C76.5678 60.3319 76.4933 60.4313 76.4933 60.4809C76.4933 60.6217 76.22 61.0937 76.1455 61.0937C76.1041 61.0937 76.0793 61.1848 76.0793 61.3007C76.0793 61.4166 76.0461 61.5077 75.9965 61.5077C75.9551 61.5077 75.9137 61.5822 75.9137 61.6733C75.9137 61.7644 75.8805 61.8389 75.8309 61.8389C75.7895 61.8389 75.748 61.9052 75.748 61.9797C75.748 62.0625 75.6901 62.2033 75.6238 62.2861C75.5576 62.3772 75.4996 62.5179 75.4996 62.6007C75.4996 62.6835 75.4665 62.7498 75.4168 62.7498C75.3754 62.7498 75.334 62.8409 75.334 62.9568C75.334 63.0727 75.3009 63.1638 75.2512 63.1638C75.2098 63.1638 75.1684 63.2963 75.1684 63.4536C75.1684 63.611 75.1353 63.7434 75.0856 63.7434C75.0442 63.7434 75.0028 63.8097 75.0028 63.9008C75.0028 63.9836 74.9448 64.1657 74.8786 64.2899C74.8124 64.4224 74.7544 64.6129 74.7544 64.7123C74.7544 64.8116 74.7213 64.9193 74.6716 64.9441C74.6302 64.9689 74.5888 65.1428 74.5888 65.325C74.5888 65.4989 74.5557 65.6479 74.506 65.6479C74.4646 65.6479 74.4232 65.8053 74.4232 66.004C74.4232 66.2027 74.3983 66.3932 74.3652 66.4263C74.2658 66.5257 74.0837 67.6849 74.0423 68.5627C74.0174 69.0098 73.9595 69.3741 73.9181 69.3741C73.8767 69.3741 73.8435 70.0945 73.8435 71.0302C73.8435 72.0818 73.8767 72.6863 73.9263 72.6863C73.976 72.6863 74.0092 72.9182 74.0092 73.1997C74.0092 73.4895 74.0671 73.9449 74.1334 74.2182C74.1996 74.4915 74.2493 74.8144 74.2576 74.9386C74.2576 75.0711 74.299 75.1705 74.3404 75.1705C74.3901 75.1705 74.4232 75.3361 74.4232 75.5431C74.4232 75.7501 74.4646 75.9157 74.506 75.9157C74.5557 75.9157 74.5888 76.0482 74.5888 76.2055C74.5888 76.3628 74.6219 76.4953 74.6633 76.4953C74.713 76.4953 74.771 76.6609 74.8041 76.8679C74.8289 77.075 74.8869 77.2406 74.9283 77.2406C74.9697 77.2406 75.0028 77.3316 75.0028 77.4393C75.0028 77.5552 75.0442 77.6711 75.0856 77.696C75.1353 77.7208 75.1684 77.8368 75.1684 77.9527C75.1684 78.0603 75.2098 78.1514 75.2512 78.1514C75.3009 78.1514 75.334 78.2425 75.334 78.3584C75.334 78.4743 75.3754 78.5654 75.4168 78.5654C75.4665 78.5654 75.4996 78.6317 75.4996 78.7062C75.4996 78.789 75.5576 78.9298 75.6238 79.0126C75.6901 79.0954 75.7232 79.203 75.6984 79.2362C75.6487 79.3272 75.3589 79.3355 75.3175 79.2444C75.2843 79.1616 74.4811 78.8967 74.2658 78.8967C74.1748 78.8967 74.092 78.8553 74.092 78.8139C74.092 78.7642 73.9263 78.731 73.7193 78.731C73.5123 78.731 73.3467 78.6896 73.3467 78.6482C73.3467 78.5986 73.2225 78.5654 73.0817 78.5654C72.9327 78.5654 72.6594 78.5075 72.4773 78.4412C72.2951 78.375 72.0218 78.3253 71.8811 78.317C71.732 78.317 71.6078 78.2756 71.6078 78.2342C71.6078 78.1845 71.2352 78.1514 70.6556 78.1514C70.0759 78.1514 69.7033 78.1183 69.7033 78.0686C69.7033 78.0189 69.5377 77.9858 69.3307 77.9858C69.1237 77.9858 68.9581 78.0189 68.9581 78.0686C68.9581 78.1183 68.5772 78.1514 67.9893 78.1514C67.4593 78.1514 66.9128 78.1845 66.772 78.2259C66.6313 78.2673 66.2752 78.3501 65.9771 78.3998C65.679 78.4495 65.3147 78.5075 65.1739 78.5323C65.0249 78.5654 64.9007 78.6151 64.9007 78.6565C64.9007 78.6979 64.7516 78.731 64.5694 78.731C64.3873 78.731 64.2382 78.7642 64.2382 78.8139C64.2382 78.8553 64.1389 78.8967 64.0147 78.8967C63.8822 78.8967 63.7083 78.9546 63.6255 79.0209C63.5344 79.0871 63.3936 79.1451 63.3108 79.1451C63.228 79.1451 63.1618 79.1782 63.1618 79.2279C63.1618 79.2693 63.0707 79.3107 62.9548 79.3107C62.8388 79.3107 62.7477 79.3438 62.7477 79.3935C62.7477 79.4349 62.6401 79.4763 62.4993 79.4763C62.3668 79.4763 62.2509 79.5011 62.2509 79.5342C62.2509 79.5757 62.0853 79.6667 61.8783 79.7495C61.6713 79.8406 61.5057 79.94 61.5057 79.9814C61.5057 80.0228 61.4146 80.0559 61.2987 80.0559C61.1827 80.0559 61.0917 80.089 61.0917 80.1222C61.0917 80.1636 60.9592 80.2629 60.8018 80.354C60.6445 80.4368 60.512 80.5362 60.512 80.5693C60.512 80.6107 60.4375 80.6355 60.3464 80.6355C60.2553 80.6355 60.1808 80.6687 60.1808 80.7184C60.1808 80.7598 60.1394 80.8012 60.098 80.8012C60.0483 80.8012 59.9655 80.8343 59.9076 80.884C59.4356 81.2731 59.2782 81.3808 59.1954 81.3808C59.1458 81.3808 58.947 81.5298 58.7566 81.712C58.5578 81.8942 58.3757 82.0432 58.3425 82.0432C58.3094 82.0432 58.1935 82.1343 58.0776 82.2502C57.9616 82.3662 57.8292 82.4572 57.7795 82.4572C57.7381 82.4572 57.6967 82.5152 57.6967 82.5815C57.6967 82.6477 57.6636 82.7057 57.6304 82.7057C57.4648 82.7057 55.461 84.6598 55.461 84.8172C55.461 84.842 55.2871 85.0407 55.0718 85.2643C54.8482 85.4796 54.5998 85.7694 54.5087 85.8936C54.4176 86.0261 54.2934 86.1752 54.2437 86.2331C54.1858 86.2911 54.1361 86.3905 54.1361 86.4484C54.1361 86.5147 54.0616 86.614 53.9705 86.6803C53.8794 86.7465 53.8049 86.8293 53.8049 86.8707C53.8049 86.9121 53.7552 86.9949 53.7055 87.0529C53.4571 87.3262 53.3908 87.4255 53.3908 87.5083C53.3908 87.5497 53.3577 87.5911 53.308 87.5911C53.2666 87.5911 53.2252 87.6656 53.2252 87.7567C53.2252 87.8478 53.2004 87.9223 53.1673 87.9223C53.0762 87.9223 52.8112 88.4026 52.8112 88.5517C52.8112 88.6179 52.7781 88.6676 52.7284 88.6676C52.687 88.6676 52.6456 88.7255 52.6456 88.7918C52.6456 88.858 52.6125 88.916 52.5628 88.916C52.5214 88.916 52.48 88.9905 52.48 89.0816C52.48 89.1727 52.4469 89.2472 52.4055 89.2472C52.3641 89.2472 52.3061 89.3383 52.2813 89.4542C52.2481 89.5701 52.1902 89.6612 52.1488 89.6612C52.0991 89.6612 52.066 89.7689 52.066 89.9096C52.066 90.0421 52.0328 90.1581 51.9832 90.1581C51.9418 90.1581 51.9004 90.2326 51.9004 90.3154C51.9004 90.4065 51.8672 90.5058 51.8176 90.5307C51.7762 90.5555 51.7348 90.6549 51.7348 90.7377C51.7348 90.8205 51.7099 90.9033 51.6768 90.9199C51.5691 90.9613 51.3207 91.5657 51.3207 91.7727C51.3207 91.8887 51.2876 91.9798 51.2379 91.9798C51.1965 91.9798 51.1551 92.0708 51.1551 92.1868C51.1551 92.3027 51.122 92.46 51.0806 92.5428C50.9481 92.8078 50.7411 93.5116 50.7411 93.6938C50.7411 93.8015 50.708 93.8843 50.6583 93.8843C50.6169 93.8843 50.5755 94.0664 50.5755 94.2983C50.5755 94.5219 50.5424 94.7123 50.501 94.7123C50.4264 94.7123 50.4099 94.8365 50.2526 96.2028C50.2112 96.592 50.1366 97.0722 50.0869 97.2792C49.971 97.7595 49.971 101.221 50.0869 101.875C50.2029 102.587 50.3271 103.531 50.385 104.127C50.4016 104.417 50.4596 104.649 50.501 104.649C50.5424 104.649 50.5755 104.814 50.5755 105.021C50.5755 105.228 50.6086 105.394 50.6417 105.394C50.6997 105.394 50.8156 105.792 50.9647 106.487C50.9895 106.62 51.0392 106.719 51.0806 106.719C51.122 106.719 51.1551 106.827 51.1551 106.967C51.1551 107.1 51.1965 107.216 51.2379 107.216C51.2876 107.216 51.3207 107.348 51.3207 107.506C51.3207 107.663 51.3539 107.795 51.3953 107.795C51.4367 107.795 51.4946 107.928 51.5195 108.085C51.5526 108.243 51.6105 108.375 51.6519 108.375C51.7016 108.375 51.7348 108.45 51.7348 108.541C51.7348 108.632 51.7762 108.706 51.8176 108.706C51.8672 108.706 51.9004 108.797 51.9004 108.913C51.9004 109.029 51.9418 109.12 51.9832 109.12C52.0328 109.12 52.066 109.178 52.066 109.244C52.066 109.319 52.1571 109.518 52.273 109.7C52.3889 109.882 52.48 110.081 52.48 110.155C52.48 110.222 52.5214 110.28 52.5628 110.28C52.6125 110.28 52.6456 110.354 52.6456 110.445C52.6456 110.536 52.6704 110.611 52.7118 110.611C52.745 110.611 52.8443 110.743 52.9271 110.901C53.0182 111.058 53.1176 111.19 53.159 111.19C53.1921 111.19 53.2252 111.265 53.2252 111.356C53.2252 111.447 53.2666 111.522 53.308 111.522C53.3577 111.522 53.3908 111.58 53.3908 111.646C53.3908 111.712 53.4322 111.77 53.4736 111.77C53.5233 111.77 53.5565 111.845 53.5565 111.936C53.5565 112.027 53.6144 112.101 53.6807 112.101C53.7469 112.101 53.8049 112.159 53.8049 112.225C53.8049 112.292 53.8463 112.35 53.8877 112.35C53.9374 112.35 53.9705 112.408 53.9705 112.474C53.9705 112.54 54.103 112.739 54.2603 112.904C54.4176 113.07 54.5501 113.244 54.5501 113.277C54.5501 113.318 54.666 113.459 54.7985 113.608C54.9393 113.749 55.0469 113.898 55.0469 113.931C55.0469 113.973 55.0883 114.006 55.138 114.006C55.2291 114.006 55.461 114.213 55.461 114.296C55.461 114.354 55.5852 114.511 55.9412 114.875C56.082 115.033 56.2062 115.182 56.2062 115.206C56.2062 115.273 56.4298 115.496 56.4877 115.496C56.5126 115.496 56.6533 115.604 56.8024 115.745C57.2992 116.184 57.5725 116.407 57.6387 116.407C57.6718 116.407 57.6967 116.448 57.6967 116.498C57.6967 116.598 57.9037 116.821 58.0031 116.821C58.0445 116.821 58.1273 116.896 58.1935 116.987C58.2597 117.078 58.3508 117.152 58.4005 117.152C58.4502 117.152 58.6324 117.285 58.798 117.442C58.9636 117.599 59.1458 117.732 59.1954 117.732C59.2534 117.732 59.3776 117.823 59.4853 117.939C59.5929 118.055 59.7337 118.146 59.8082 118.146C59.8744 118.146 59.9324 118.179 59.9324 118.229C59.9324 118.27 59.9904 118.312 60.0566 118.312C60.1228 118.312 60.1808 118.345 60.1808 118.394C60.1808 118.436 60.2388 118.477 60.305 118.477C60.3795 118.477 60.5369 118.568 60.6611 118.684C60.7853 118.8 60.926 118.891 60.984 118.891C61.042 118.891 61.0917 118.924 61.0917 118.974C61.0917 119.015 61.1662 119.057 61.249 119.057C61.3401 119.057 61.4229 119.082 61.4394 119.115C61.4726 119.198 62.3503 119.636 62.4828 119.636C62.5325 119.636 62.5821 119.67 62.5821 119.719C62.5821 119.761 62.6732 119.802 62.7891 119.802C62.9051 119.802 62.9962 119.835 62.9962 119.885C62.9962 119.926 63.0541 119.968 63.1286 119.968C63.1949 119.968 63.3108 120.026 63.3771 120.092C63.4516 120.158 63.5924 120.216 63.7083 120.216C63.8159 120.216 63.907 120.249 63.907 120.299C63.907 120.34 64.0229 120.382 64.1554 120.382C64.2962 120.382 64.4038 120.415 64.4038 120.464C64.4038 120.506 64.4949 120.547 64.6108 120.547C64.7268 120.547 64.8841 120.58 64.9669 120.622C65.2236 120.746 65.9523 120.961 66.1344 120.961C66.2255 120.961 66.3083 120.994 66.3083 121.044C66.3083 121.086 66.4988 121.127 66.7224 121.127C66.9542 121.127 67.1364 121.16 67.1364 121.201C67.1364 121.243 67.3517 121.301 67.6166 121.317C68.6186 121.417 69.4632 121.541 69.6205 121.624C69.8275 121.731 73.4295 121.731 73.7276 121.624C73.8518 121.574 74.299 121.508 74.7296 121.483C75.1601 121.458 75.5245 121.4 75.5493 121.359C75.5742 121.326 75.7729 121.293 76.0047 121.293C76.2283 121.293 76.4105 121.251 76.4105 121.21C76.4105 121.16 76.6009 121.127 76.8245 121.127C77.0564 121.127 77.2385 121.086 77.2385 121.044C77.2385 120.994 77.3462 120.961 77.4869 120.961C77.6194 120.961 77.8513 120.912 78.0003 120.845C78.4309 120.672 78.8449 120.547 79.0437 120.547C79.143 120.547 79.2258 120.506 79.2258 120.464C79.2258 120.415 79.3418 120.382 79.4742 120.382C79.615 120.382 79.7227 120.34 79.7227 120.299C79.7227 120.249 79.822 120.216 79.938 120.216C80.0539 120.216 80.2029 120.158 80.2692 120.092C80.3437 120.026 80.4845 119.968 80.6004 119.968C80.708 119.968 80.7991 119.926 80.7991 119.885C80.7991 119.835 80.8736 119.802 80.9647 119.802C81.0558 119.802 81.1303 119.761 81.1303 119.719C81.1303 119.67 81.2214 119.636 81.3373 119.636C81.4533 119.636 81.5444 119.595 81.5444 119.554C81.5444 119.504 81.6106 119.471 81.6934 119.471C81.7762 119.471 81.917 119.413 82.0081 119.347C82.0909 119.28 82.2316 119.222 82.3144 119.222C82.389 119.222 82.4552 119.181 82.4552 119.14C82.4552 119.09 82.5297 119.057 82.6125 119.057C82.7036 119.057 82.7864 119.032 82.803 118.991C82.8195 118.957 83.0431 118.825 83.3081 118.684C83.5648 118.552 83.7801 118.411 83.7801 118.378C83.7801 118.345 83.8546 118.312 83.954 118.312C84.0451 118.312 84.1775 118.262 84.2355 118.204C84.4922 117.98 84.575 117.922 84.84 117.815C84.9807 117.749 85.105 117.666 85.105 117.633C85.105 117.591 85.1795 117.566 85.2706 117.566C85.3616 117.566 85.4362 117.525 85.4362 117.484C85.4362 117.434 85.4776 117.401 85.5273 117.401C85.5769 117.401 85.668 117.351 85.726 117.293C85.9992 117.053 86.0986 116.987 86.1814 116.987C86.2228 116.987 86.2642 116.945 86.2642 116.904C86.2642 116.854 86.3222 116.821 86.3967 116.821C86.4712 116.821 86.6037 116.73 86.6948 116.614C86.7859 116.498 86.9101 116.407 86.9763 116.407C87.0426 116.407 87.2496 116.258 87.4318 116.076C87.6222 115.894 87.8044 115.745 87.8458 115.745C87.8872 115.745 88.1439 115.521 88.4171 115.248C88.6904 114.975 88.9305 114.751 88.9554 114.751C88.9802 114.751 89.2535 114.503 89.5681 114.188C89.8745 113.882 90.2223 113.55 90.3299 113.451C90.57 113.236 90.7357 113.037 90.7357 112.971C90.7357 112.946 90.9675 112.689 91.2573 112.408C91.5471 112.126 91.8535 111.77 91.9363 111.621C92.0274 111.48 92.1268 111.356 92.1599 111.356C92.193 111.356 92.2261 111.538 92.2261 111.77C92.2261 111.994 92.193 112.184 92.1516 112.184C92.1102 112.184 92.0605 112.358 92.0357 112.573C91.986 113.07 91.8287 113.691 91.721 113.79C91.6796 113.84 91.6465 113.997 91.6465 114.147C91.6465 114.296 91.6134 114.42 91.5637 114.42C91.5223 114.42 91.4809 114.552 91.4809 114.71C91.4809 114.867 91.4478 114.999 91.3981 114.999C91.3567 114.999 91.3153 115.107 91.3153 115.248C91.3153 115.38 91.2822 115.496 91.2325 115.496C91.1911 115.496 91.1497 115.579 91.1497 115.678C91.1414 115.786 91.0917 115.96 91.0255 116.076C90.9592 116.192 90.9095 116.366 90.9013 116.465C90.9013 116.573 90.8681 116.655 90.8185 116.655C90.7771 116.655 90.7357 116.747 90.7357 116.862C90.7357 116.978 90.7025 117.07 90.6529 117.07C90.6114 117.07 90.57 117.127 90.57 117.194C90.57 117.26 90.479 117.508 90.363 117.749C90.2471 117.98 90.156 118.245 90.156 118.32C90.156 118.403 90.1312 118.477 90.0981 118.494C90.0153 118.527 89.5764 119.405 89.5764 119.537C89.5764 119.587 89.5433 119.636 89.4936 119.636C89.4522 119.636 89.4108 119.711 89.4108 119.802C89.4108 119.893 89.3777 119.968 89.328 119.968C89.2866 119.968 89.2452 120.026 89.2452 120.092C89.2452 120.158 89.2121 120.216 89.1624 120.216C89.121 120.216 89.0796 120.291 89.0796 120.382C89.0796 120.473 89.0464 120.547 88.9968 120.547C88.9554 120.547 88.8974 120.638 88.8643 120.754C88.8394 120.87 88.7815 120.961 88.7401 120.961C88.6987 120.961 88.6655 121.036 88.6655 121.127C88.6655 121.218 88.6324 121.293 88.5827 121.293C88.5413 121.293 88.4999 121.351 88.4999 121.417C88.4999 121.483 88.4668 121.541 88.4171 121.541C88.3757 121.541 88.3343 121.615 88.3343 121.698C88.3343 121.781 88.2764 121.872 88.2101 121.905C88.1439 121.93 88.0859 122.005 88.0859 122.079C88.0859 122.145 88.0528 122.203 88.0031 122.203C87.9617 122.203 87.9203 122.261 87.9203 122.328C87.9203 122.394 87.8872 122.452 87.8375 122.452C87.7961 122.452 87.7547 122.51 87.7547 122.584C87.7547 122.659 87.6636 122.808 87.5477 122.916C87.4318 123.023 87.3407 123.164 87.3407 123.238C87.3407 123.305 87.3075 123.363 87.2579 123.363C87.2165 123.363 87.1751 123.404 87.1751 123.445C87.1751 123.495 87.0923 123.628 86.9929 123.735C86.7114 124.033 86.5954 124.174 86.5954 124.232C86.5954 124.257 86.5126 124.373 86.4133 124.481C86.1317 124.779 86.0158 124.919 86.0158 124.977C86.0158 125.01 85.7757 125.275 85.4776 125.565C85.1795 125.863 84.9393 126.128 84.9393 126.161C84.9311 126.236 84.4591 126.758 84.4011 126.758C84.3431 126.758 83.8712 127.18 83.275 127.768C83.0183 128.033 82.7699 128.248 82.7285 128.248C82.6871 128.248 82.5132 128.381 82.3476 128.538C82.182 128.695 81.9832 128.828 81.917 128.828C81.8507 128.828 81.7928 128.861 81.7928 128.911C81.7928 128.952 81.7597 128.993 81.7182 128.993C81.6686 128.993 81.5361 129.084 81.4119 129.2C81.2877 129.316 81.1469 129.407 81.0972 129.407C81.0475 129.407 80.9482 129.482 80.8819 129.573C80.8157 129.664 80.7163 129.739 80.6666 129.739C80.5259 129.739 80.0539 130.012 80.0539 130.086C80.0539 130.128 79.9628 130.153 79.8469 130.153C79.7309 130.153 79.6399 130.186 79.6399 130.235C79.6399 130.277 79.5653 130.318 79.4742 130.318C79.3832 130.318 79.3086 130.343 79.3086 130.376C79.3086 130.418 79.1347 130.509 78.9112 130.591C78.6959 130.674 78.4558 130.782 78.3812 130.823C78.2984 130.865 78.1577 130.898 78.0666 130.898C77.9755 130.898 77.901 130.931 77.901 130.981C77.901 131.022 77.7933 131.063 77.6525 131.063C77.5201 131.063 77.4041 131.097 77.4041 131.146C77.4041 131.188 77.2716 131.246 77.1143 131.279C76.957 131.304 76.8245 131.362 76.8245 131.403C76.8245 131.444 76.7169 131.477 76.5844 131.477C76.4436 131.477 76.3111 131.511 76.2863 131.56C76.2614 131.602 76.1289 131.643 75.9882 131.643C75.8557 131.643 75.748 131.676 75.748 131.726C75.748 131.767 75.6238 131.809 75.4665 131.809C75.3092 131.809 75.1684 131.85 75.1519 131.9C75.1353 131.941 74.9697 132.007 74.771 132.032C74.5805 132.057 74.4232 132.115 74.4232 132.148C74.4232 132.19 74.2907 132.223 74.1334 132.223C73.976 132.223 73.8435 132.256 73.8435 132.306C73.8435 132.347 73.7111 132.388 73.5537 132.388C73.3964 132.388 73.2639 132.421 73.2639 132.463C73.2639 132.504 73.1231 132.554 72.9575 132.579C72.411 132.662 71.7734 132.835 71.7734 132.902C71.7734 132.935 71.6078 132.968 71.4008 132.968C71.1938 132.968 71.0282 133.001 71.0282 133.051C71.0282 133.092 70.8626 133.134 70.6556 133.134C70.4486 133.134 70.283 133.167 70.283 133.216C70.283 133.258 70.1753 133.299 70.0428 133.299C69.9103 133.299 69.6702 133.357 69.5129 133.423C69.3473 133.49 69.0823 133.548 68.9167 133.548C68.7594 133.548 68.6269 133.581 68.6269 133.63C68.6269 133.672 68.4613 133.713 68.2542 133.713C68.0472 133.713 67.8816 133.746 67.8816 133.796C67.8816 133.837 67.7243 133.879 67.5256 133.879C67.3268 133.879 67.1364 133.904 67.1033 133.937C67.0287 134.02 66.1593 134.21 65.6293 134.268C65.4058 134.293 65.2319 134.343 65.2319 134.384C65.2319 134.425 65.0994 134.458 64.9421 134.458C64.6522 134.458 64.6522 134.458 64.6522 134.831C64.6522 135.038 64.6191 135.204 64.5777 135.204C64.5363 135.204 64.4866 135.344 64.4618 135.51C64.3707 136.131 64.2631 136.57 64.172 136.752C64.114 136.851 64.0726 137.042 64.0726 137.183C64.0726 137.323 64.0395 137.439 63.9898 137.439C63.9484 137.439 63.907 137.622 63.907 137.845C63.907 138.077 63.8739 138.276 63.8325 138.301C63.7911 138.325 63.7414 138.491 63.7166 138.657C63.6255 139.286 63.4599 139.924 63.3936 139.924C63.3605 139.924 63.3274 140.089 63.3274 140.296C63.3274 140.503 63.2943 140.669 63.2446 140.669C63.2032 140.669 63.1618 140.743 63.1618 140.834C63.1618 141 63.2197 141 95.9109 141H128.66V140.793C128.66 140.677 128.602 140.445 128.536 140.28C128.47 140.122 128.412 139.841 128.412 139.667C128.412 139.485 128.379 139.344 128.329 139.344C128.287 139.344 128.246 139.178 128.246 138.971C128.246 138.764 128.213 138.599 128.163 138.599C128.122 138.599 128.08 138.433 128.08 138.226C128.08 138.019 128.047 137.853 127.998 137.853C127.956 137.853 127.915 137.738 127.915 137.605C127.915 137.464 127.857 137.216 127.791 137.05C127.724 136.893 127.666 136.628 127.666 136.479C127.666 136.322 127.633 136.197 127.584 136.197C127.542 136.197 127.501 136.007 127.501 135.783C127.501 135.551 127.468 135.369 127.418 135.369C127.377 135.369 127.335 135.262 127.335 135.121C127.335 134.566 127.17 134.425 126.383 134.285C125.621 134.16 124.95 134.003 124.884 133.937C124.851 133.904 124.628 133.879 124.379 133.879C124.139 133.879 123.94 133.846 123.94 133.804C123.94 133.763 123.766 133.713 123.551 133.688C122.963 133.622 122.317 133.49 122.127 133.39C122.036 133.341 121.812 133.299 121.63 133.299C121.44 133.299 121.29 133.258 121.29 133.216C121.29 133.167 121.125 133.134 120.918 133.134C120.711 133.134 120.545 133.1 120.545 133.059C120.545 133.018 120.404 132.968 120.239 132.943C120.065 132.918 119.701 132.844 119.427 132.761C119.154 132.686 118.831 132.604 118.707 132.579C118.575 132.554 118.475 132.504 118.475 132.463C118.475 132.421 118.326 132.388 118.144 132.388C117.962 132.388 117.813 132.347 117.813 132.306C117.813 132.256 117.689 132.223 117.531 132.223C117.374 132.223 117.217 132.19 117.192 132.14C117.167 132.099 117.076 132.057 117.001 132.057C116.927 132.057 116.753 131.999 116.62 131.933C116.496 131.867 116.314 131.809 116.231 131.809C116.14 131.809 116.074 131.767 116.074 131.726C116.074 131.676 115.941 131.643 115.784 131.643C115.627 131.643 115.494 131.602 115.494 131.56C115.494 131.511 115.403 131.477 115.295 131.477C115.188 131.477 114.973 131.411 114.815 131.337C114.318 131.088 114.252 131.063 114.128 131.063C114.062 131.063 114.004 131.022 114.004 130.981C114.004 130.931 113.871 130.898 113.714 130.898C113.557 130.898 113.424 130.856 113.424 130.815C113.424 130.765 113.35 130.732 113.258 130.732C113.167 130.732 113.093 130.699 113.093 130.658C113.093 130.616 113.002 130.558 112.886 130.534C112.77 130.5 112.679 130.442 112.679 130.401C112.679 130.351 112.588 130.318 112.472 130.318C112.356 130.318 112.265 130.277 112.265 130.235C112.265 130.186 112.19 130.153 112.099 130.153C112.008 130.153 111.934 130.111 111.934 130.07C111.934 130.02 111.884 129.987 111.818 129.987C111.76 129.987 111.66 129.929 111.602 129.863C111.544 129.797 111.428 129.739 111.346 129.739C111.255 129.739 111.188 129.697 111.188 129.656C111.188 129.606 111.13 129.573 111.064 129.573C110.998 129.573 110.94 129.532 110.94 129.49C110.94 129.44 110.882 129.407 110.816 129.407C110.741 129.407 110.592 129.325 110.485 129.225C110.153 128.911 110.037 128.828 109.946 128.828C109.905 128.828 109.863 128.795 109.863 128.762C109.863 128.728 109.739 128.629 109.599 128.538C109.449 128.455 109.267 128.323 109.201 128.256C109.135 128.182 108.928 128.016 108.746 127.875C108.563 127.743 108.356 127.569 108.282 127.486C108.207 127.404 108.116 127.337 108.083 127.337C108.058 127.337 107.901 127.205 107.744 127.047C107.595 126.89 107.446 126.758 107.421 126.758C107.396 126.758 107.214 126.592 107.015 126.385C106.808 126.178 106.601 126.012 106.56 126.012C106.51 126.012 106.469 125.971 106.469 125.93C106.469 125.88 106.344 125.714 106.204 125.557C105.665 124.986 105.558 124.861 105.558 124.77C105.558 124.729 105.516 124.688 105.467 124.688C105.375 124.688 105.144 124.481 105.144 124.398C105.144 124.373 105.061 124.265 104.961 124.158C104.854 124.05 104.696 123.859 104.605 123.735C104.514 123.603 104.39 123.454 104.34 123.396C104.282 123.338 104.233 123.247 104.233 123.197C104.233 123.147 104.125 122.99 103.993 122.858C103.852 122.725 103.719 122.543 103.695 122.452C103.661 122.361 103.603 122.286 103.562 122.286C103.521 122.286 103.488 122.228 103.488 122.162C103.488 122.096 103.454 122.038 103.405 122.038C103.363 122.038 103.322 121.963 103.322 121.88C103.322 121.798 103.264 121.707 103.198 121.673C103.131 121.649 103.074 121.574 103.074 121.5C103.074 121.433 103.04 121.375 102.991 121.375C102.949 121.375 102.908 121.317 102.908 121.251C102.908 121.185 102.875 121.127 102.825 121.127C102.784 121.127 102.742 121.052 102.742 120.961C102.742 120.87 102.709 120.796 102.668 120.796C102.626 120.796 102.568 120.705 102.544 120.589C102.51 120.473 102.452 120.382 102.411 120.382C102.361 120.382 102.328 120.307 102.328 120.216C102.328 120.125 102.295 120.05 102.245 120.05C102.204 120.05 102.163 119.959 102.163 119.843C102.163 119.728 102.13 119.636 102.096 119.636C102.063 119.636 101.964 119.471 101.881 119.264C101.79 119.057 101.691 118.891 101.649 118.891C101.616 118.891 101.583 118.8 101.583 118.684C101.583 118.568 101.55 118.477 101.5 118.477C101.459 118.477 101.417 118.386 101.417 118.27C101.417 118.154 101.384 118.063 101.335 118.063C101.293 118.063 101.252 117.947 101.252 117.815C101.252 117.674 101.219 117.566 101.177 117.566C101.136 117.566 101.078 117.434 101.053 117.277C101.02 117.119 100.962 116.987 100.921 116.987C100.871 116.987 100.838 116.854 100.838 116.697C100.838 116.54 100.805 116.407 100.755 116.407C100.714 116.407 100.672 116.291 100.672 116.159C100.672 116.018 100.639 115.91 100.589 115.91C100.548 115.91 100.507 115.811 100.507 115.678C100.507 115.554 100.407 115.19 100.3 114.875C100.184 114.552 100.093 114.171 100.093 114.022C100.093 113.882 100.059 113.757 100.01 113.757C99.9684 113.757 99.927 113.55 99.927 113.302C99.927 113.053 99.8938 112.846 99.8524 112.846C99.811 112.846 99.7613 112.673 99.7282 112.449C99.7034 112.234 99.6537 111.919 99.6289 111.745C99.5792 111.439 99.5792 111.431 99.7531 111.538C99.8441 111.596 99.927 111.687 99.927 111.745C99.927 111.845 102.941 114.917 103.032 114.917C103.09 114.917 103.239 115.033 103.529 115.306C103.637 115.413 103.753 115.496 103.777 115.496C103.802 115.496 103.918 115.579 104.026 115.678C104.332 115.968 104.473 116.076 104.531 116.076C104.564 116.076 104.647 116.142 104.721 116.225C104.796 116.308 104.978 116.448 105.127 116.531C105.268 116.622 105.392 116.722 105.392 116.755C105.392 116.788 105.467 116.821 105.558 116.821C105.649 116.821 105.723 116.854 105.723 116.904C105.723 116.945 105.765 116.987 105.806 116.987C105.889 116.987 105.988 117.053 106.261 117.293C106.319 117.351 106.411 117.401 106.46 117.401C106.51 117.401 106.551 117.434 106.551 117.484C106.551 117.525 106.626 117.566 106.717 117.566C106.808 117.566 106.883 117.599 106.883 117.649C106.883 117.691 106.924 117.732 106.982 117.732C107.032 117.732 107.197 117.823 107.346 117.939C107.495 118.055 107.653 118.146 107.702 118.146C107.752 118.146 107.793 118.179 107.793 118.229C107.793 118.27 107.884 118.312 108 118.312C108.116 118.312 108.207 118.345 108.207 118.394C108.207 118.436 108.282 118.477 108.373 118.477C108.464 118.477 108.539 118.51 108.539 118.56C108.539 118.601 108.63 118.659 108.746 118.692C108.862 118.717 108.953 118.775 108.953 118.817C108.953 118.858 109.027 118.891 109.118 118.891C109.209 118.891 109.284 118.924 109.284 118.974C109.284 119.015 109.375 119.057 109.491 119.057C109.607 119.057 109.698 119.09 109.698 119.14C109.698 119.181 109.772 119.222 109.863 119.222C109.955 119.222 110.029 119.256 110.029 119.305C110.029 119.347 110.162 119.405 110.319 119.438C110.476 119.463 110.609 119.521 110.609 119.562C110.609 119.603 110.7 119.636 110.816 119.636C110.932 119.636 111.023 119.67 111.023 119.719C111.023 119.761 111.114 119.802 111.221 119.802C111.337 119.802 111.453 119.835 111.478 119.885C111.503 119.935 111.619 119.968 111.735 119.968C111.843 119.968 111.934 120.001 111.934 120.05C111.934 120.092 112.025 120.15 112.141 120.183C112.257 120.208 112.348 120.266 112.348 120.307C112.348 120.349 112.497 120.382 112.679 120.382C112.861 120.382 113.01 120.415 113.01 120.464C113.01 120.506 113.134 120.547 113.292 120.547C113.449 120.547 113.606 120.589 113.631 120.63C113.656 120.68 113.788 120.713 113.913 120.713C114.037 120.713 114.211 120.771 114.302 120.837C114.385 120.903 114.558 120.961 114.691 120.961C114.815 120.961 114.915 120.994 114.915 121.044C114.915 121.094 115.138 121.127 115.411 121.127C115.685 121.127 115.908 121.16 115.908 121.21C115.908 121.259 116.14 121.293 116.446 121.293C116.745 121.293 116.985 121.326 116.985 121.367C116.985 121.458 119.378 121.591 120.57 121.558C121.108 121.541 121.903 121.491 122.35 121.45C122.789 121.4 123.402 121.351 123.717 121.326C124.023 121.301 124.271 121.243 124.271 121.201C124.271 121.16 124.437 121.127 124.644 121.127C124.851 121.127 125.017 121.086 125.017 121.044C125.017 120.994 125.116 120.961 125.232 120.961C125.447 120.961 126.159 120.763 126.441 120.622C126.524 120.58 126.665 120.547 126.756 120.547C126.847 120.547 126.921 120.506 126.921 120.464C126.921 120.415 127.054 120.382 127.211 120.382C127.368 120.382 127.501 120.34 127.501 120.299C127.501 120.249 127.559 120.216 127.633 120.216C127.708 120.216 127.882 120.158 128.023 120.084C128.503 119.827 128.577 119.802 128.702 119.802C128.768 119.802 128.826 119.761 128.826 119.719C128.826 119.67 128.875 119.636 128.925 119.636C129.058 119.636 129.935 119.198 129.968 119.115C129.985 119.082 130.068 119.057 130.159 119.057C130.242 119.057 130.316 119.015 130.316 118.974C130.316 118.924 130.374 118.891 130.449 118.891C130.523 118.891 130.672 118.8 130.78 118.684C130.888 118.568 131.028 118.477 131.103 118.477C131.169 118.477 131.227 118.436 131.227 118.394C131.227 118.345 131.285 118.312 131.351 118.312C131.417 118.312 131.475 118.27 131.475 118.229C131.475 118.179 131.55 118.146 131.641 118.146C131.732 118.146 131.807 118.113 131.807 118.071C131.807 118.03 131.873 117.972 131.964 117.939C132.047 117.914 132.237 117.782 132.378 117.649C132.519 117.508 132.66 117.401 132.701 117.401C132.734 117.401 132.908 117.268 133.074 117.111C133.239 116.954 133.397 116.821 133.421 116.821C133.479 116.821 133.645 116.689 134.001 116.341C134.158 116.2 134.324 116.076 134.374 116.076C134.415 116.076 134.456 116.034 134.456 115.993C134.456 115.894 134.829 115.496 134.912 115.496C134.978 115.496 135.202 115.273 135.202 115.206C135.202 115.14 135.591 114.751 135.657 114.751C135.723 114.751 135.947 114.527 135.947 114.461C135.947 114.436 136.03 114.329 136.137 114.221C136.411 113.94 136.692 113.6 136.692 113.542C136.692 113.525 136.775 113.41 136.883 113.302C137.189 112.971 137.272 112.855 137.272 112.764C137.272 112.722 137.305 112.681 137.338 112.681C137.371 112.681 137.47 112.557 137.562 112.408C137.644 112.267 137.785 112.085 137.868 112.01C137.951 111.936 138.017 111.811 138.017 111.737C138.017 111.662 138.058 111.604 138.1 111.604C138.149 111.604 138.183 111.546 138.183 111.48C138.183 111.414 138.216 111.356 138.249 111.356C138.29 111.356 138.39 111.207 138.481 111.025C138.564 110.843 138.663 110.694 138.704 110.694C138.737 110.694 138.762 110.636 138.762 110.569C138.762 110.503 138.804 110.445 138.845 110.445C138.895 110.445 138.928 110.395 138.928 110.346C138.928 110.213 139.367 109.336 139.45 109.302C139.483 109.286 139.507 109.178 139.507 109.071C139.507 108.963 139.549 108.872 139.59 108.872C139.64 108.872 139.673 108.806 139.673 108.723C139.673 108.648 139.764 108.416 139.88 108.218C139.996 108.027 140.087 107.771 140.087 107.663C140.087 107.555 140.129 107.464 140.17 107.464C140.22 107.464 140.253 107.373 140.253 107.257C140.253 107.141 140.294 107.05 140.336 107.05C140.385 107.05 140.418 106.918 140.418 106.76C140.418 106.603 140.451 106.471 140.493 106.471C140.543 106.471 140.601 106.305 140.634 106.098C140.658 105.891 140.716 105.725 140.758 105.725C140.799 105.725 140.832 105.56 140.832 105.353C140.832 105.146 140.874 104.98 140.915 104.98C140.965 104.98 140.998 104.814 140.998 104.607C140.998 104.4 141.031 104.235 141.072 104.235C141.106 104.235 141.164 103.978 141.197 103.663C141.222 103.341 141.288 102.984 141.329 102.869C141.379 102.753 141.412 102.339 141.412 101.949C141.412 101.544 141.445 101.254 141.495 101.254C141.544 101.254 141.578 100.608 141.578 99.4736C141.578 98.4882 141.544 97.6933 141.503 97.6933C141.462 97.6933 141.412 97.2958 141.379 96.799C141.329 95.8467 141.164 94.6792 141.064 94.5798C141.023 94.5467 140.998 94.3562 140.998 94.1575C140.998 93.9588 140.965 93.8015 140.915 93.8015C140.874 93.8015 140.832 93.611 140.832 93.3874C140.832 93.1556 140.808 92.9734 140.774 92.9734C140.733 92.9734 140.642 92.7416 140.559 92.4517C140.476 92.1702 140.369 91.8721 140.327 91.7976C140.286 91.7148 140.253 91.5409 140.253 91.4001C140.253 91.2676 140.22 91.1517 140.17 91.1517C140.129 91.1517 140.087 91.0772 140.087 90.9778C140.087 90.8867 140.037 90.7543 139.971 90.6963C139.913 90.63 139.806 90.4148 139.748 90.2077C139.69 89.9925 139.607 89.8268 139.574 89.8268C139.541 89.8268 139.507 89.7358 139.507 89.6198C139.507 89.5039 139.474 89.4128 139.425 89.4128C139.383 89.4128 139.342 89.3383 139.342 89.2555C139.342 89.1727 139.284 89.0816 139.218 89.0485C139.151 89.0236 139.093 88.9243 139.093 88.8332C139.093 88.7421 139.06 88.6676 139.011 88.6676C138.969 88.6676 138.928 88.6096 138.928 88.5434C138.928 88.4771 138.895 88.4192 138.845 88.4192C138.804 88.4192 138.762 88.3446 138.762 88.2536C138.762 88.1625 138.729 88.0879 138.679 88.0879C138.638 88.0879 138.597 88.0134 138.597 87.9223C138.597 87.8313 138.564 87.7567 138.522 87.7567C138.481 87.7567 138.414 87.6739 138.381 87.5663C138.348 87.4669 138.257 87.3261 138.174 87.2516C138.083 87.1771 138.017 87.0695 138.017 87.0198C138.017 86.9618 137.934 86.8376 137.827 86.7382C137.727 86.6389 137.586 86.4567 137.528 86.3242C137.462 86.2 137.379 86.1006 137.338 86.1006C137.305 86.1006 137.272 86.0592 137.272 86.0096C137.272 85.9599 137.222 85.8688 137.172 85.8108C136.941 85.5541 136.858 85.4465 136.858 85.3968C136.858 85.372 136.692 85.1815 136.485 84.9745C136.278 84.7758 136.113 84.577 136.113 84.5274C136.113 84.428 134.962 83.2853 134.862 83.2853C134.821 83.2853 134.788 83.2273 134.788 83.1611C134.788 83.0948 134.738 83.0369 134.672 83.0369C134.614 83.0369 134.357 82.8299 134.1 82.5815C133.852 82.333 133.62 82.126 133.587 82.126C133.537 82.126 133.388 82.0184 133.09 81.7286C132.982 81.6292 132.867 81.5464 132.842 81.5464C132.817 81.5464 132.751 81.505 132.693 81.4636C132.229 81.0744 132.08 80.9668 131.997 80.9668C131.939 80.9668 131.889 80.9254 131.889 80.884C131.889 80.8343 131.832 80.8012 131.765 80.8012C131.699 80.8012 131.641 80.7598 131.641 80.7184C131.641 80.6687 131.591 80.6355 131.533 80.6355C131.475 80.6355 131.335 80.5445 131.21 80.4285C131.086 80.3126 130.912 80.2215 130.813 80.2215C130.722 80.2215 130.647 80.1801 130.647 80.1387C130.647 80.089 130.573 80.0559 130.482 80.0559C130.391 80.0559 130.316 80.0311 130.316 79.9897C130.316 79.9566 130.151 79.8572 129.944 79.7661C129.737 79.675 129.571 79.5757 129.571 79.5425C129.571 79.5011 129.48 79.4763 129.364 79.4763C129.248 79.4763 129.157 79.4349 129.157 79.3935C129.157 79.3438 129.049 79.3107 128.909 79.3107C128.776 79.3107 128.66 79.2693 128.66 79.2279C128.66 79.1782 128.569 79.1451 128.461 79.1451C128.345 79.1451 128.205 79.0871 128.13 79.0209C128.064 78.9546 127.931 78.8967 127.84 78.8967C127.741 78.8967 127.666 78.8553 127.666 78.8139C127.666 78.7642 127.517 78.731 127.335 78.731C127.153 78.731 127.004 78.6896 127.004 78.6482C127.004 78.5986 126.88 78.5654 126.731 78.5654C126.582 78.5654 126.424 78.5323 126.383 78.4909C126.25 78.3667 125.514 78.2177 124.876 78.1763C124.545 78.1514 124.271 78.1017 124.271 78.0603C124.271 78.0189 123.294 77.9858 121.912 77.9858C120.396 77.9858 119.552 78.0189 119.552 78.0686C119.552 78.1183 119.287 78.1514 118.931 78.1514C118.591 78.1514 118.31 78.1845 118.31 78.2259C118.31 78.2591 118.119 78.317 117.879 78.3419C117.647 78.375 117.415 78.4329 117.366 78.4826C117.324 78.524 117.159 78.5654 117.01 78.5654C116.86 78.5654 116.736 78.5986 116.736 78.6482C116.736 78.6896 116.629 78.731 116.488 78.731C116.355 78.731 116.239 78.7642 116.239 78.8139C116.239 78.8553 116.148 78.8967 116.032 78.8967C115.842 78.8967 115.825 78.8718 115.875 78.6648C115.908 78.5406 115.966 78.4081 115.999 78.3584C116.041 78.317 116.074 78.2177 116.074 78.1349C116.074 78.052 116.115 77.9858 116.157 77.9858C116.206 77.9858 116.239 77.8533 116.239 77.696C116.239 77.5387 116.281 77.4062 116.322 77.4062C116.372 77.4062 116.405 77.2985 116.405 77.1743C116.405 77.0418 116.43 76.9093 116.455 76.8845C116.554 76.7851 116.811 75.9571 116.819 75.7252C116.819 75.601 116.86 75.5017 116.902 75.5017C116.952 75.5017 116.985 75.3361 116.985 75.129C116.985 74.922 117.026 74.7564 117.067 74.7564C117.117 74.7564 117.15 74.5825 117.15 74.359C117.15 74.1437 117.208 73.8207 117.274 73.6386C117.341 73.4564 117.39 73.0341 117.399 72.7029C117.399 72.3634 117.432 72.1067 117.481 72.1067C117.531 72.1067 117.564 71.5436 117.564 70.5748C117.564 69.606 117.531 69.0429 117.481 69.0429C117.432 69.0429 117.399 68.7697 117.399 68.397C117.399 68.0493 117.341 67.6104 117.274 67.4282C117.208 67.2461 117.159 66.9231 117.15 66.7078C117.15 66.4925 117.117 66.2938 117.067 66.269C117.026 66.2441 116.985 66.0702 116.985 65.8881C116.985 65.7142 116.952 65.5651 116.902 65.5651C116.86 65.5651 116.819 65.3995 116.819 65.1925C116.819 64.9855 116.786 64.8199 116.745 64.8199C116.703 64.8199 116.645 64.6708 116.612 64.4887C116.579 64.3065 116.521 64.1409 116.48 64.1078C116.438 64.0829 116.405 63.9753 116.405 63.8594C116.405 63.7517 116.372 63.6606 116.322 63.6606C116.281 63.6606 116.239 63.5447 116.239 63.4122C116.239 63.2715 116.206 63.1638 116.157 63.1638C116.115 63.1638 116.074 63.081 116.074 62.9734C116.074 62.874 115.983 62.6256 115.867 62.4268C115.751 62.2364 115.66 62.0211 115.66 61.9549C115.66 61.8886 115.627 61.8389 115.577 61.8389C115.536 61.8389 115.494 61.7644 115.494 61.6816C115.494 61.5905 115.469 61.5077 115.436 61.4912C115.353 61.458 114.915 60.5886 114.915 60.4727C114.915 60.423 114.84 60.3319 114.749 60.2656C114.658 60.1994 114.583 60.1083 114.583 60.0504C114.583 60.0007 114.492 59.8516 114.376 59.7191C114.26 59.5867 114.169 59.4293 114.169 59.3714C114.169 59.3134 114.087 59.1726 113.987 59.065C113.689 58.7503 113.59 58.6178 113.59 58.5516C113.59 58.5102 113.515 58.4274 113.424 58.3611C113.333 58.2949 113.258 58.1955 113.258 58.1376C113.258 58.0713 113.126 57.8974 112.969 57.7484C112.811 57.5911 112.679 57.442 112.679 57.4172C112.679 57.3592 112.389 57.0114 112.041 56.6554C111.892 56.5063 111.768 56.3407 111.768 56.291C111.768 56.2496 111.727 56.2082 111.685 56.2082C111.569 56.2082 111.188 55.8273 111.188 55.7114C111.188 55.67 111.147 55.6286 111.106 55.6286C111.056 55.6286 110.89 55.5044 110.733 55.3553C110.369 55.0076 110.211 54.8834 110.153 54.8834C110.128 54.8834 109.938 54.7178 109.731 54.5107C109.532 54.3037 109.317 54.1381 109.259 54.1381C109.201 54.1381 109.102 54.0636 109.035 53.9725C108.969 53.8814 108.886 53.8069 108.845 53.8069C108.804 53.8069 108.721 53.7572 108.663 53.6993C108.39 53.4591 108.29 53.3929 108.207 53.3929C108.166 53.3929 108.125 53.3598 108.125 53.3184C108.125 53.277 108.017 53.2024 107.876 53.1445C107.744 53.0865 107.628 53.012 107.628 52.9706C107.628 52.9292 107.537 52.8795 107.421 52.8464C107.305 52.8215 107.214 52.7636 107.214 52.7222C107.214 52.6808 107.139 52.6476 107.048 52.6476C106.957 52.6476 106.883 52.6062 106.883 52.5648C106.883 52.5152 106.825 52.482 106.758 52.482C106.692 52.482 106.634 52.4406 106.634 52.3992C106.634 52.3495 106.576 52.3164 106.502 52.3164C106.435 52.3164 106.319 52.2667 106.261 52.2088C105.963 51.9521 105.881 51.9024 105.723 51.9024C105.632 51.9024 105.558 51.861 105.558 51.8196C105.558 51.7699 105.508 51.7368 105.442 51.7368C105.293 51.7368 104.812 51.4718 104.812 51.3807C104.812 51.3476 104.721 51.3228 104.605 51.3228C104.489 51.3228 104.398 51.2814 104.398 51.24C104.398 51.1903 104.291 51.1572 104.15 51.1572C104.017 51.1572 103.902 51.1158 103.902 51.0744C103.902 51.0247 103.844 50.9916 103.769 50.9916C103.587 50.9916 102.792 50.7183 102.759 50.6355C102.742 50.6024 102.602 50.5775 102.444 50.5775C102.287 50.5775 102.163 50.5444 102.163 50.503C102.163 50.4616 102.022 50.4119 101.856 50.3871C101.682 50.3622 101.318 50.2794 101.045 50.2049C100.772 50.1304 100.374 50.0476 100.159 50.0227C99.9352 49.9979 99.7613 49.9482 99.7613 49.9068C99.7613 49.8654 99.4632 49.8323 99.0989 49.8323C98.7097 49.8323 98.4365 49.7992 98.4365 49.7495C98.4365 49.6998 97.4428 49.6667 95.6211 49.6667C93.7994 49.6667 92.8058 49.6998 92.8058 49.7495Z" fill="#1F261F"></path>
</g>
<defs>
<linearGradient id="SvgjsLinearGradient1013" x1="96" y1="0" x2="96" y2="192" gradientUnits="userSpaceOnUse">
<stop stop-color="white"></stop>
<stop offset="1" stop-color="#F2EFE3"></stop>
</linearGradient>
<clipPath id="SvgjsClipPath1012">
<rect width="192" height="192" fill="white"></rect>
</clipPath>
</defs>
</svg><style>@media (prefers-color-scheme: light) { :root { filter: none; } }
@media (prefers-color-scheme: dark) { :root { filter: none; } }
</style></svg>